<svg width="64" height="64" viewBox="0 0 64 64" fill="none" xmlns="http://www.w3.org/2000/svg">
<path d="M50.0096 24.1824C50.5035 24.4287 50.8437 24.4289 51.3223 24.7044C51.8191 24.9904 54.5651 25.046 56.6075 25.47C58.2363 25.8081 60.7679 26.2489 62.3073 26.7575C63.5572 27.1705 64 27.6971 64 27.6971C64 27.6971 60.345 26.8689 58.0584 26.5835C55.7718 26.2981 54.6385 26.166 52.4622 26.2356C51.6509 26.2615 51.0829 26.4241 50.2859 26.7923C49.2383 27.2763 48.804 27.8339 47.9715 28.6367C47.1702 29.4093 46.8338 29.951 46.1061 30.7942C45.3092 31.7175 44.5491 32.4775 43.8952 33.5085C43.2647 34.5028 43.2701 34.9849 42.8244 35.9097C42.0437 37.5293 41.7496 38.5799 40.5099 39.8768C38.7136 41.7559 37.4149 42.9441 35.0519 43.8438C33.5914 44.3999 32.9431 44.7071 31.5284 44.5746C30.88 44.5139 30.5312 44.4082 29.8703 44.4354C28.6944 44.4837 28.074 45.0618 27.2104 45.6534C26.2154 46.3349 25.569 46.5742 24.5505 47.2193C21.4733 49.1681 18.1598 52.648 17.1925 52.9612C16.9228 53.0485 16.6744 52.9612 16.4671 52.9612C16.2964 52.9612 16.9162 52.2304 16.9162 52.2304C16.9162 52.2304 16.5144 52.475 16.4671 52.4392C16.4198 52.4034 16.4671 51.9868 16.4671 51.9868C16.4671 51.9868 15.2489 52.9612 15.2235 52.7524C15.1838 52.4264 15.5689 51.9868 15.5689 51.9868C15.5689 51.9868 16.9351 50.2096 17.8834 49.1333C18.7638 48.1341 19.3564 47.6657 20.2324 46.6626C21.4961 45.2155 22.0331 44.2624 23.2378 42.7651C24.0339 41.7755 24.4376 41.181 25.3104 40.2595C26.1342 39.3898 26.6954 39.0046 27.5558 38.1716C28.6631 37.0995 30.3193 35.3529 30.3193 35.3529C30.3193 35.3529 29.6285 35.4267 29.4903 35.3529C29.3521 35.2791 29.1103 35.0049 29.1103 34.6917C29.1103 34.5525 28.7529 34.6221 28.5576 34.4829C28.2712 34.2789 28.3811 33.798 28.0394 33.7521C27.5213 33.6825 26.8689 33.6479 26.3813 33.1606C26.2031 32.9825 26.2343 32.7325 26.0013 32.6386C25.6559 32.4994 24.71 32.5257 24.2741 31.9078C24.0615 31.6064 24.1238 31.3963 23.8596 31.2466C23.3069 30.9334 22.5224 31.061 22.0287 30.4462C21.8124 30.1769 21.8659 29.9064 21.5796 29.785C20.9233 29.5067 19.7833 29.1587 19.0925 28.8803C18.7867 28.757 18.8406 28.4403 18.5743 28.2887C17.7798 27.8363 16.5362 27.7319 16.018 27.0707C15.8926 26.9107 16.2204 26.5487 16.018 26.5487C14.809 26.5487 13.0472 25.296 12.5291 24.6696C12.3512 24.4546 12.8353 24.5319 12.7363 24.4956C11.5964 24.078 9.24735 22.2337 8.97099 21.7813C8.8096 21.5171 9.52895 21.6353 9.38553 21.5029C8.97099 21.1201 5.58566 19.2758 5.03295 18.4058C4.76613 17.9858 6.02603 17.7695 5.65475 17.7446C4.61842 17.675 3.20209 15.3783 2.40757 14.6823C2.12254 14.4326 3.13771 14.2713 2.96028 14.0211C2.78756 13.7775 1.75122 12.7683 1.12943 12.2116C0.887451 11.9948 1.0074 11.5113 1.30215 11.3764C1.68212 11.2024 1.92232 11.0996 2.5112 11.0284C3.25226 10.9388 3.75454 11.0791 4.51479 11.2024C5.96924 11.4381 6.67988 11.8914 8.00375 12.49C10.3848 13.5664 13.7036 16.0047 13.7036 16.0047C13.7036 16.0047 17.7482 18.5596 20.3706 20.1457C22.7033 21.5566 23.9906 22.3864 26.3813 23.6952C28.2843 24.7371 29.478 25.0895 31.3211 26.2356C32.697 27.0911 33.0958 28.4935 34.7065 28.6367C34.9886 28.6617 35.1503 28.6677 35.4319 28.6367C36.2777 28.5433 36.8448 28.1802 37.6082 27.8015C38.3009 27.4578 38.7827 27.1233 39.1281 26.7923C39.5817 26.3578 39.6814 26.0062 40.0263 25.47C40.4527 24.8068 40.5707 24.346 41.0281 23.6952C41.4263 23.1286 41.7502 22.87 42.3407 22.5121C43.0863 22.0601 43.5639 22.0698 44.3789 22.0597C45.0619 22.0511 45.5455 22.1425 46.2097 22.3033C47.1723 22.5362 47.6433 22.758 48.4896 23.208C49.1118 23.5388 49.379 23.8679 50.0096 24.1824Z" fill="url(#paint0_linear_38_17)"/>
<defs>
<linearGradient id="paint0_linear_38_17" x1="6.00889" y1="55.2991" x2="50.5682" y2="25.328" gradientUnits="userSpaceOnUse">
<stop stop-color="#090615"/>
<stop offset="0.25" stop-color="#31226D"/>
<stop offset="0.51" stop-color="#6C5AA6"/>
<stop offset="0.75" stop-color="#AE99CB"/>
<stop offset="0.945" stop-color="#E0DEEC"/>
</linearGradient>
</defs>
</svg>
