<svg width="64" height="64" viewBox="0 0 64 64" fill="none" xmlns="http://www.w3.org/2000/svg">
<path d="M33.8209 36.8122C38.0233 36.8122 43.9233 39.3336 50.1773 42.0071C53.9761 43.631 58.0115 45.3555 62.1642 46.7374C61.431 49.8786 60.2172 52.8877 58.5659 55.6581L46.6641 47.5871L41.5997 51.2568L33.8119 43.902L16.2751 55.7832L10.5118 51.9897L4.62599 56C1.69184 51.2169 0.0942768 45.7335 0 40.1219C1.15536 40.5445 2.28362 40.9729 3.38418 41.3923C8.75612 43.4361 13.8296 45.3671 19.0687 45.3671C25.6354 45.3671 26.9861 42.5897 28.075 40.3606C29.2091 38.0284 29.9802 36.8123 33.8209 36.8122ZM30.9834 25.7239C34.7996 25.7239 39.777 27.8006 45.0562 30.0032C50.4545 32.258 56.4125 34.7355 62.769 35.7561C63.1275 38.6851 63.0685 41.6502 62.5936 44.5626C58.9805 43.2987 55.4222 41.7794 52.0573 40.3413C45.0864 37.3606 39.0659 34.7871 33.8177 34.7871C27.3639 34.7871 26.0241 37.54 24.9474 39.7516C23.7998 42.111 23.0171 43.3425 19.0687 43.3426C14.7754 43.3426 10.3029 41.64 5.1295 39.669C3.48864 39.0452 1.79685 38.4019 0.0360776 37.7858C0.194949 34.8517 0.764445 31.9544 1.72788 29.1787L2.30235 29.4136C7.64012 31.6071 12.6826 33.6716 17.5233 33.6716C23.5922 33.6716 24.8359 31.0684 25.8359 28.9768C26.8571 26.8393 27.5502 25.7239 30.9834 25.7239ZM28.1556 14.6348C31.5824 14.6348 35.6391 16.269 39.944 18.0038C45.2812 20.1548 51.2733 22.5645 58.2932 22.9516C60.3128 26.2131 61.7164 29.8181 62.4343 33.5871C57.0115 32.5361 51.722 30.3342 46.8962 28.3206C40.953 25.8406 35.8209 23.6987 30.9854 23.6987C24.9468 23.6987 23.7063 26.2942 22.7095 28.38C21.6831 30.5264 20.9868 31.6464 17.5252 31.6464C13.6942 31.6464 9.05465 29.7419 4.13274 27.7278C3.60858 27.5123 3.07667 27.2955 2.54155 27.0774C3.66062 24.4798 5.12419 22.0448 6.89283 19.8381C10.1371 21.1045 13.1307 21.9742 15.9836 21.9742C21.5573 21.9742 22.7424 19.4439 23.607 17.5955C24.5174 15.6504 25.1331 14.6348 28.1556 14.6348ZM31.4915 8C41.8795 8 51.0844 13.0323 56.8245 20.7839C51.3062 20.1523 46.2779 18.129 41.7557 16.3084C37.0369 14.4065 32.5792 12.6103 28.1569 12.6103C22.5342 12.6103 21.344 15.1529 20.4742 17.0097C19.542 18.9955 18.963 19.9497 15.9817 19.9497C13.8709 19.9497 11.2822 19.1574 8.44536 18.04C14.1971 11.8658 22.391 8 31.4915 8Z" fill="url(#paint0_linear_38_13)"/>
<defs>
<linearGradient id="paint0_linear_38_13" x1="34.7532" y1="5.96438" x2="21.7856" y2="83.2489" gradientUnits="userSpaceOnUse">
<stop stop-color="#2AFFBA"/>
<stop offset="0.02" stop-color="#31F4BD"/>
<stop offset="0.14" stop-color="#53BCCC"/>
<stop offset="0.25" stop-color="#718ADA"/>
<stop offset="0.37" stop-color="#8A5FE5"/>
<stop offset="0.49" stop-color="#9F3DEF"/>
<stop offset="0.61" stop-color="#AF22F6"/>
<stop offset="0.74" stop-color="#BB0FFB"/>
<stop offset="0.87" stop-color="#C204FE"/>
<stop offset="1" stop-color="#C400FF"/>
</linearGradient>
</defs>
</svg>
