<svg width="64" height="64" viewBox="0 0 64 64" fill="none" xmlns="http://www.w3.org/2000/svg">
<path d="M46.8091 6.83966C45.9582 5.97493 44.6399 5.76511 43.5551 6.27073C43.3966 6.34459 42.7778 6.63581 41.8495 7.10767C40.79 7.64621 39.321 8.42337 37.6743 9.38245C34.4306 11.2716 30.2999 13.9788 27.301 17.0596C23.2479 21.2233 19.8398 27.8129 17.5036 33.0827C16.0121 36.4471 14.8944 39.4209 14.263 41.1848C10.8973 41.6775 8.06674 42.3302 5.93847 43.1376C4.70616 43.6051 3.54027 44.1864 2.63216 44.9423C1.73522 45.6888 0.749996 46.9078 0.749996 48.6027C0.75001 50.0278 1.48422 51.0971 2.18207 51.7793C2.8751 52.4568 3.7449 52.9742 4.60887 53.3827C6.3512 54.2066 8.69093 54.8735 11.3545 55.4061C16.7285 56.4807 24.0263 57.125 32.0001 57.125C39.9738 57.125 47.2715 56.4807 52.6455 55.4061C55.3091 54.8735 57.6488 54.2066 59.3911 53.3827C60.2551 52.9742 61.1249 52.4568 61.8179 51.7793C62.5049 51.1078 63.2271 50.0611 63.2495 48.6692L63.25 48.6027L63.2493 48.5235C63.2193 46.8699 62.2514 45.6771 61.3681 44.9417C60.4598 44.1856 59.2937 43.6043 58.0614 43.1369C55.8436 42.2958 52.8632 41.6227 49.3095 41.1234C48.6592 40.0717 47.6288 38.328 46.5921 36.2643C44.8128 32.7226 43.2196 28.6372 43.0945 25.4545C42.9838 22.6401 43.9547 18.8859 45.1024 15.5986C45.6587 14.0051 46.2244 12.6096 46.6509 11.6134C46.9699 10.868 47.2087 10.3517 47.302 10.1528C47.3175 10.1197 47.329 10.0954 47.3362 10.0804C47.3398 10.0729 47.3424 10.0676 47.3437 10.0648L47.3447 10.0627C47.8636 8.98293 47.6494 7.69361 46.8091 6.83966Z" fill="url(#paint0_linear_74_16)"/>
<defs>
<linearGradient id="paint0_linear_74_16" x1="32" y1="6" x2="32" y2="57.125" gradientUnits="userSpaceOnUse">
<stop stop-color="#ED5345"/>
<stop offset="1" stop-color="#E25C50"/>
</linearGradient>
</defs>
</svg>
