<svg xmlns="http://www.w3.org/2000/svg" viewBox="0 0 512 512" width="1024" height="1024">
  <defs>
    <linearGradient id="grad" gradientUnits="userSpaceOnUse" x1="60" y1="452" x2="452" y2="60">
      <stop offset="0%" stop-color="#a370f7"/>
      <stop offset="45.1030%" stop-color="#a370f7"/>
      <stop offset="45.1030%" stop-color="#a370f7" stop-opacity="0"/>
      <stop offset="54.8970%" stop-color="#22a6e0" stop-opacity="0"/>
      <stop offset="54.8970%" stop-color="#22a6e0"/>
      <stop offset="100%" stop-color="#22a6e0"/>
    </linearGradient>
  </defs>
  <path d="M486.000000 256.000000 C486.000000 298.358497 486.085336 325.991354 484.337828 350.580625 C481.554446 389.745740 473.723644 425.088707 449.406176 449.406176 C425.088710 473.723641 389.745748 481.554445 350.580625 484.337828 C325.991354 486.085336 298.358504 486.000000 256.000000 486.000000 C213.641496 486.000000 186.008646 486.085336 161.419375 484.337828 C122.254252 481.554445 86.911290 473.723641 62.593824 449.406176 C38.276356 425.088707 30.445554 389.745740 27.662172 350.580625 C25.914664 325.991354 26.000000 298.358497 26.000000 256.000000 C26.000000 213.641503 25.914664 186.008646 27.662172 161.419375 C30.445554 122.254260 38.276356 86.911293 62.593824 62.593824 C86.911290 38.276359 122.254252 30.445555 161.419375 27.662172 C186.008646 25.914664 213.641496 26.000000 256.000000 26.000000 C298.358504 26.000000 325.991354 25.914664 350.580625 27.662172 C389.745748 30.445555 425.088710 38.276359 449.406176 62.593824 C473.723644 86.911293 481.554446 122.254260 484.337828 161.419375 C486.085336 186.008646 486.000000 213.641503 486.000000 256.000000Z M398.147817 256.000000 C398.147817 282.178991 398.200558 299.257036 397.120539 314.454041 C395.400314 338.659413 390.560612 360.502568 375.531590 375.531590 C360.502570 390.560610 338.659418 395.400313 314.454041 397.120539 C299.257036 398.200558 282.178995 398.147817 256.000000 398.147817 C229.821005 398.147817 212.742964 398.200558 197.545959 397.120539 C173.340582 395.400313 151.497430 390.560610 136.468410 375.531590 C121.439388 360.502568 116.599686 338.659413 114.879461 314.454041 C113.799442 299.257036 113.852183 282.178991 113.852183 256.000000 C113.852183 229.821009 113.799442 212.742964 114.879461 197.545959 C116.599686 173.340587 121.439388 151.497432 136.468410 136.468410 C151.497430 121.439390 173.340582 116.599687 197.545959 114.879461 C212.742964 113.799442 229.821005 113.852183 256.000000 113.852183 C282.178995 113.852183 299.257036 113.799442 314.454041 114.879461 C338.659418 116.599687 360.502570 121.439390 375.531590 136.468410 C390.560612 151.497432 395.400314 173.340587 397.120539 197.545959 C398.200558 212.742964 398.147817 229.821009 398.147817 256.000000Z" fill="url(#grad)" fill-rule="evenodd"/>
</svg>
